<?xml version="1.0" standalone="no"?>
<!DOCTYPE svg PUBLIC "-//W3C//DTD SVG 20010904//EN"
 "http://www.w3.org/TR/2001/REC-SVG-20010904/DTD/svg10.dtd">
<svg version="1.0" xmlns="http://www.w3.org/2000/svg"
 width="1024.000000pt" height="1024.000000pt" viewBox="0 0 1024.000000 1024.000000"
 preserveAspectRatio="xMidYMid meet">

<g transform="translate(0.000000,1024.000000) scale(0.100000,-0.100000)"
fill="#000000" stroke="none">
<path d="M2290 7340 c-19 -4 -73 -15 -120 -24 -47 -9 -106 -21 -132 -27 l-48
-11 0 -193 0 -193 -107 -52 c-97 -46 -110 -50 -130 -38 -12 7 -76 59 -142 116
-66 56 -124 102 -130 102 -6 0 -47 -30 -90 -67 -42 -38 -103 -88 -134 -113
-31 -25 -58 -51 -61 -59 -4 -7 19 -59 51 -115 31 -55 72 -130 91 -166 l35 -66
-54 -74 c-30 -41 -62 -87 -72 -102 -19 -31 -5 -32 -202 9 -66 13 -136 27 -156
30 l-36 5 -60 -163 c-34 -90 -64 -172 -68 -181 -5 -13 15 -31 97 -83 56 -37
128 -84 158 -104 62 -42 59 -25 42 -206 l-7 -80 -135 -43 c-198 -63 -225 -75
-223 -98 2 -10 8 -55 14 -99 6 -44 16 -120 22 -170 l12 -90 70 -6 c39 -4 108
-7 155 -8 103 -2 161 -10 165 -25 22 -76 41 -130 62 -173 l26 -52 -128 -136
-127 -135 18 -28 c36 -55 195 -271 203 -276 5 -3 62 19 127 50 66 31 143 67
172 80 l52 23 63 -56 c34 -30 88 -73 120 -95 64 -44 65 -46 42 -153 -47 -217
-56 -266 -51 -273 3 -5 38 -21 78 -37 40 -16 115 -46 167 -67 51 -22 98 -37
105 -35 6 3 52 71 101 152 50 82 96 154 102 161 10 10 25 9 75 -2 35 -8 117
-18 183 -22 l119 -7 66 -178 65 -179 35 6 c44 6 320 65 339 71 11 4 13 41 10
201 l-4 195 70 30 c109 47 107 40 45 174 -29 63 -55 115 -57 115 -2 0 -34 -15
-71 -34 -99 -50 -225 -92 -331 -110 -118 -20 -331 -21 -442 -1 -499 87 -907
482 -1022 992 -29 130 -32 424 -4 545 19 87 45 169 57 181 17 19 40 -25 40
-76 0 -62 35 -132 65 -132 28 0 30 29 5 63 -26 35 -40 117 -19 110 7 -2 17
-21 21 -42 5 -21 22 -57 39 -81 24 -34 30 -50 25 -70 -15 -61 81 -125 163
-109 19 4 31 2 31 -4 0 -19 31 -42 57 -42 18 0 39 -15 71 -50 41 -45 49 -50
88 -50 33 0 46 -5 54 -19 19 -37 11 -68 -24 -98 -30 -25 -35 -35 -40 -89 -5
-59 -5 -61 36 -110 22 -27 47 -64 55 -81 7 -18 17 -33 21 -33 5 0 30 -14 55
-31 l47 -31 0 -105 c0 -63 5 -113 12 -126 7 -12 11 -46 9 -75 -2 -41 1 -58 16
-74 14 -15 18 -34 16 -76 -2 -46 3 -65 27 -107 53 -93 136 -147 176 -114 13
10 11 16 -12 40 -23 24 -25 32 -19 68 5 33 4 41 -8 41 -28 0 -38 24 -20 49 15
22 15 24 -1 33 -27 15 -18 25 40 44 30 9 62 27 70 38 8 12 35 49 60 83 43 59
45 65 38 108 -8 58 12 85 65 85 20 0 44 7 54 15 21 15 36 70 37 130 0 28 11
56 35 95 42 64 43 73 11 88 -14 6 -32 23 -42 37 -14 22 -24 25 -73 26 -31 0
-76 8 -101 17 -40 16 -46 22 -55 60 -14 58 -37 82 -80 82 -29 0 -39 6 -57 34
-28 43 -56 62 -71 47 -19 -19 -68 -12 -99 14 -43 36 -82 33 -120 -10 -29 -34
-33 -35 -77 -29 -54 8 -61 15 -61 70 0 43 -11 59 -45 66 -21 4 -24 27 -10 60
13 32 -21 31 -66 -2 -88 -63 -150 0 -99 100 32 63 84 90 173 90 73 0 73 0 88
-32 8 -18 22 -34 32 -36 14 -3 17 4 17 41 0 42 3 46 60 90 33 26 60 53 60 59
0 22 71 98 115 123 22 14 55 41 73 60 24 27 37 35 52 30 23 -7 28 13 5 21 -8
4 -15 12 -15 19 0 22 30 26 60 8 25 -15 33 -15 55 -3 30 16 44 6 27 -20 -7
-11 -12 -22 -12 -24 0 -6 60 -26 76 -26 24 0 15 30 -11 42 -30 14 -32 24 -5
38 28 15 25 54 -5 74 -18 12 -25 25 -25 47 0 29 -2 31 -27 24 -50 -13 -58 -11
-61 17 -2 19 -11 29 -34 37 -66 23 -90 9 -97 -56 -5 -42 -10 -50 -38 -62 -18
-8 -33 -20 -33 -26 0 -18 -37 -48 -49 -40 -6 3 -11 19 -11 35 0 22 -6 29 -27
35 -44 10 -73 34 -73 58 0 18 15 32 62 60 68 40 102 46 116 21 8 -14 12 -14
30 -3 12 8 22 22 22 31 0 11 8 18 18 18 11 0 27 9 37 20 15 17 29 20 69 18 61
-4 72 -25 25 -48 -42 -21 -39 -31 13 -47 56 -16 56 -16 63 6 4 13 17 21 38 23
36 3 50 35 23 50 -9 5 -16 18 -16 29 0 15 -15 27 -55 45 -94 41 -187 27 -193
-29 -4 -33 -26 -45 -47 -27 -14 11 -14 15 0 36 23 35 18 44 -23 44 -49 0 -68
-17 -46 -41 15 -16 13 -19 -27 -38 -57 -28 -109 -28 -109 -1 0 15 7 20 28 20
29 0 62 26 62 48 0 16 -11 15 -34 -3 -29 -22 -60 -18 -87 11 l-24 26 22 17
c31 25 192 77 298 95 191 34 417 14 615 -53 293 -100 538 -305 697 -584 41
-73 60 -96 72 -93 40 13 177 46 191 46 42 1 44 16 10 88 l-33 71 33 28 c19 15
61 50 94 77 34 27 76 62 94 78 l34 29 -37 52 c-20 29 -68 95 -108 147 -60 78
-77 95 -97 93 -14 -1 -81 -28 -150 -61 -69 -33 -132 -62 -140 -63 -9 -2 -54
28 -100 67 -47 39 -100 81 -118 94 -40 27 -40 19 8 253 18 86 31 159 29 161
-8 6 -338 136 -346 136 -4 0 -53 -72 -108 -161 l-100 -160 -40 5 c-22 3 -69
10 -105 16 -36 5 -101 10 -146 10 l-80 0 -42 108 c-22 59 -53 140 -68 180 -29
78 -29 78 -104 62z m-340 -820 c6 -12 21 -20 35 -20 14 0 25 -4 25 -10 0 -5
-15 -10 -34 -10 -19 0 -38 5 -41 10 -3 6 -17 10 -30 10 -26 0 -40 14 -30 30
11 18 64 11 75 -10z"/>
<path d="M3012 5723 l3 -178 95 -1 c143 -2 155 1 175 47 l18 39 86 0 87 0 19
-42 c19 -41 48 -60 65 -41 4 4 -27 85 -69 178 -67 150 -79 170 -101 173 -23 3
-29 -7 -88 -140 -34 -79 -66 -147 -70 -153 -4 -6 -40 -9 -84 -7 l-78 4 0 149
0 149 -30 0 -30 0 2 -177z m409 30 c13 -32 26 -61 27 -65 2 -4 -24 -8 -58 -8
-46 0 -61 3 -57 13 36 87 51 117 56 117 4 0 18 -26 32 -57z"/>
<path d="M3607 5893 c-3 -7 -2 -247 2 -327 l1 -29 93 6 c50 3 104 10 118 15
58 23 77 96 38 146 -16 20 -19 30 -10 39 6 6 11 32 11 57 0 50 -12 66 -63 88
-30 13 -183 17 -190 5z m181 -59 c24 -17 29 -53 10 -72 -7 -7 -39 -12 -75 -12
l-63 0 0 43 c0 24 3 47 7 50 13 13 99 7 121 -9z m28 -159 c15 -23 15 -27 0
-50 -15 -23 -23 -25 -86 -25 l-70 0 0 50 0 50 70 0 c63 0 71 -2 86 -25z"/>
<path d="M4034 5890 c-46 -15 -100 -74 -113 -126 -21 -83 14 -155 92 -193 124
-60 268 22 267 152 -1 51 -34 113 -78 142 -43 29 -119 40 -168 25z m134 -68
c71 -46 67 -168 -8 -207 -16 -8 -48 -15 -71 -15 -35 0 -48 6 -80 39 -31 31
-39 46 -39 75 0 107 108 166 198 108z"/>
<path d="M4330 5719 l0 -180 28 3 c26 3 27 6 30 61 l3 57 44 0 c43 0 46 -2 81
-54 19 -30 44 -56 54 -59 37 -10 39 8 5 62 l-34 54 29 27 c17 16 31 39 32 52
7 120 -37 158 -187 158 l-85 0 0 -181z m194 110 c32 -25 36 -77 7 -103 -22
-20 -80 -31 -115 -22 -25 6 -26 10 -26 76 l0 70 54 0 c39 0 60 -6 80 -21z"/>
<path d="M4710 5738 c-40 -90 -74 -169 -77 -175 -3 -9 5 -13 25 -13 25 0 32 6
46 40 l16 40 87 0 88 0 17 -40 c14 -34 21 -40 46 -40 l30 0 -62 143 c-88 199
-92 207 -120 207 -21 0 -32 -19 -96 -162z m133 10 c21 -48 23 -57 10 -62 -23
-9 -91 -7 -97 3 -8 12 46 133 55 124 4 -5 19 -34 32 -65z"/>
<path d="M4950 5876 c0 -23 4 -25 53 -28 l52 -3 3 -147 3 -148 24 0 25 0 0
150 0 150 55 0 c52 0 55 1 55 25 l0 25 -135 0 -135 0 0 -24z"/>
<path d="M5335 5892 c-86 -30 -129 -94 -123 -181 5 -70 34 -116 92 -142 93
-42 202 -10 244 71 44 84 12 194 -69 236 -34 17 -114 26 -144 16z m99 -56 c47
-20 76 -61 76 -108 0 -79 -49 -128 -131 -128 -33 0 -47 6 -74 33 -43 43 -52
79 -34 131 11 33 23 46 59 64 52 26 60 27 104 8z"/>
<path d="M5630 5720 l0 -180 25 0 c22 0 24 4 27 58 l3 57 46 3 46 3 34 -56
c30 -49 37 -55 67 -55 l33 0 -24 33 c-49 65 -51 75 -23 108 62 73 40 165 -47
198 -16 6 -64 11 -108 11 l-79 0 0 -180z m173 119 c35 -16 49 -51 36 -89 -12
-33 -36 -43 -109 -44 l-45 -1 -3 59 c-2 32 -1 65 2 72 7 17 85 19 119 3z"/>
<path d="M5970 5726 l0 -176 25 0 c28 0 28 -2 29 240 l1 105 -27 3 -28 3 0
-175z"/>
<path d="M6197 5886 c-50 -19 -76 -42 -98 -91 -75 -162 112 -311 269 -215 48
30 72 75 72 140 0 126 -124 211 -243 166z m123 -58 c36 -18 48 -31 59 -64 17
-49 10 -84 -27 -125 -32 -36 -94 -49 -142 -29 -96 40 -94 183 4 226 43 18 55
17 106 -8z"/>
<path d="M3576 5377 c-32 -41 -32 -47 -3 -47 20 1 94 56 85 65 -1 2 -15 6 -29
10 -22 6 -31 1 -53 -28z"/>
<path d="M3521 5228 c-20 -46 -43 -99 -51 -118 -8 -19 -26 -60 -41 -90 -29
-60 -29 -70 5 -70 16 0 28 12 44 45 l22 45 80 0 80 0 22 -45 c19 -38 27 -45
51 -45 19 0 27 4 24 13 -36 89 -152 334 -161 339 -26 17 -39 4 -75 -74z m93
-80 l26 -58 -60 0 -60 0 21 53 c12 28 23 58 26 65 8 19 18 5 47 -60z"/>
<path d="M3010 5125 l0 -175 30 0 30 0 1 118 0 117 50 -97 c64 -128 75 -129
130 -13 22 47 45 87 50 91 5 3 9 -41 9 -106 l0 -111 28 3 27 3 3 173 2 172
-33 0 c-33 0 -35 -2 -87 -110 -30 -60 -57 -110 -60 -110 -3 0 -30 50 -60 110
-53 107 -55 110 -87 110 l-33 0 0 -175z"/>
<path d="M3839 5272 c-93 -60 -108 -184 -31 -266 29 -30 79 -56 111 -56 10 0
35 -16 54 -35 41 -41 84 -46 135 -15 28 17 31 23 22 41 -6 11 -14 19 -18 17
-62 -31 -62 -31 -89 -18 -27 12 -27 13 -8 24 98 56 130 172 71 258 -36 53 -70
72 -139 76 -55 3 -67 0 -108 -26z m144 -36 c68 -29 95 -101 62 -169 -23 -49
-88 -75 -145 -58 -106 31 -118 174 -20 223 42 22 61 22 103 4z"/>
<path d="M4178 5283 c-10 -43 5 -249 19 -271 39 -62 141 -82 204 -39 57 38 69
75 69 210 l0 118 -26 -3 -27 -3 2 -98 c1 -54 -3 -114 -9 -133 -22 -67 -116
-83 -160 -27 -18 23 -20 40 -20 144 l0 119 -24 0 c-15 0 -26 -7 -28 -17z"/>
<path d="M4550 5125 l0 -175 25 0 25 0 0 175 0 175 -25 0 -25 0 0 -175z"/>
<path d="M4680 5158 c2 -188 6 -208 36 -208 24 0 24 0 24 120 0 66 3 120 8
120 4 0 45 -54 92 -120 73 -101 89 -119 113 -119 l27 -1 0 175 0 175 -25 0
-25 0 0 -120 c0 -66 -3 -120 -7 -120 -5 0 -48 54 -96 120 -78 107 -91 120
-118 120 l-30 0 1 -142z"/>
<path d="M5095 5134 c-38 -91 -71 -169 -73 -174 -2 -6 10 -10 26 -10 26 0 31
6 46 45 l18 45 83 0 83 0 19 -45 c15 -38 22 -45 46 -45 15 0 27 4 27 9 0 8
-15 44 -77 181 -16 36 -36 81 -43 100 -19 50 -29 60 -59 60 -24 -1 -31 -12
-96 -166z m149 -21 c7 -22 5 -23 -48 -23 -31 0 -56 4 -56 9 0 5 12 35 26 67
l26 59 23 -45 c12 -25 26 -55 29 -67z"/>
<path d="M5441 5286 c-28 -15 -50 -52 -51 -83 0 -39 44 -79 110 -97 65 -18 88
-42 71 -75 -17 -32 -69 -35 -126 -7 -51 26 -70 23 -63 -10 4 -26 84 -64 133
-64 77 0 134 58 120 122 -8 36 -43 62 -108 84 -64 20 -81 35 -72 63 9 30 51
37 105 18 42 -15 46 -15 58 0 18 25 15 33 -23 49 -43 17 -122 18 -154 0z"/>
<path d="M5840 5125 l0 -175 23 0 c24 0 24 2 30 126 3 69 3 148 0 175 -5 43
-9 49 -29 49 l-24 0 0 -175z"/>
<path d="M5980 5125 l0 -175 30 0 29 0 3 122 3 122 89 -123 c78 -108 91 -122
115 -119 l26 3 3 173 2 172 -29 0 -30 0 -3 -122 -3 -123 -90 123 c-77 105 -93
122 -117 122 l-28 0 0 -175z"/>
<path d="M6316 5291 c-15 -24 7 -41 55 -41 l49 0 0 -150 0 -150 30 0 30 0 0
150 0 150 50 0 c47 0 50 2 50 25 l0 25 -129 0 c-72 0 -132 -4 -135 -9z"/>
<path d="M6630 5125 l0 -176 123 3 c118 3 122 4 125 26 3 22 1 22 -98 22
l-101 0 3 53 3 52 83 3 c74 3 82 5 82 22 0 18 -7 20 -85 20 l-85 0 0 50 0 50
95 0 c95 0 95 0 95 25 l0 25 -120 0 -120 0 0 -175z"/>
<path d="M6940 5125 l0 -175 100 0 100 0 0 25 c0 24 -2 25 -75 25 l-75 0 0
150 0 150 -25 0 -25 0 0 -175z"/>
<path d="M7182 5128 l3 -173 28 -3 27 -3 0 175 0 176 -30 0 -30 0 2 -172z"/>
<path d="M7392 5283 c-95 -47 -128 -167 -69 -253 51 -75 154 -100 237 -57 l45
22 3 68 c3 66 3 67 -23 67 -23 0 -25 -3 -25 -49 0 -52 -9 -64 -53 -75 -77 -18
-157 44 -157 123 0 33 7 49 34 79 32 34 39 37 89 36 35 0 64 -6 82 -18 26 -17
27 -17 41 1 20 26 18 29 -29 52 -52 25 -129 27 -175 4z"/>
<path d="M7680 5125 l0 -175 125 0 125 0 0 25 c0 25 0 25 -96 25 l-95 0 3 53
3 52 83 3 c74 3 82 5 82 22 0 18 -7 20 -85 20 l-85 0 0 50 0 50 90 0 c89 0 90
0 90 25 l0 25 -120 0 -120 0 0 -175z"/>
<path d="M7992 5128 l3 -173 27 -3 27 -3 3 125 3 125 90 -124 c78 -108 94
-125 118 -125 l27 0 0 175 0 175 -25 0 -25 0 0 -120 c0 -66 -4 -120 -8 -120
-4 0 -37 39 -72 88 -35 48 -74 102 -87 120 -18 24 -32 32 -54 32 l-29 0 2
-172z"/>
<path d="M8330 5275 c0 -23 3 -25 50 -25 l49 0 3 -147 3 -148 28 -3 27 -3 0
150 0 151 55 0 c52 0 55 1 55 25 l0 25 -135 0 -135 0 0 -25z"/>
<path d="M8640 5125 l0 -176 128 3 c119 3 127 4 127 23 0 18 -8 20 -97 23
l-98 3 0 49 0 49 83 3 c76 3 82 5 85 26 3 21 1 22 -82 22 l-86 0 0 50 0 49 93
3 c87 3 92 4 95 26 3 22 2 22 -122 22 l-126 0 0 -175z"/>
<path d="M9000 5293 c-35 -13 -60 -47 -60 -83 0 -45 20 -74 62 -90 84 -31 108
-44 114 -63 16 -50 -73 -68 -142 -28 -41 25 -43 24 -46 -10 -3 -20 5 -28 42
-46 99 -51 210 -7 210 83 0 40 -36 77 -92 93 -58 17 -88 38 -88 61 0 40 78 50
131 17 21 -13 24 -11 33 21 6 19 2 25 -28 37 -35 15 -106 19 -136 8z"/>
<path d="M3010 4585 c0 -138 9 -168 58 -203 15 -11 48 -23 72 -27 55 -7 104
16 138 65 20 30 22 45 22 161 l0 129 -25 0 -25 0 0 -115 c0 -63 -5 -125 -11
-139 -23 -50 -115 -59 -155 -15 -15 17 -19 41 -22 145 -4 123 -5 124 -28 124
l-24 0 0 -125z"/>
<path d="M3467 4695 c-141 -50 -158 -240 -29 -313 65 -36 172 -25 211 22 12
15 12 19 -1 32 -14 14 -19 13 -49 -5 -69 -42 -148 -18 -180 53 -49 111 58 211
169 157 42 -21 46 -21 61 -6 15 15 14 18 -7 35 -25 21 -83 40 -117 40 -11 -1
-37 -7 -58 -15z"/>
<path d="M3720 4535 l0 -175 25 0 24 0 3 123 3 122 90 -122 c77 -106 93 -123
117 -123 l28 0 0 176 0 175 -27 -3 -28 -3 -2 -114 c-1 -62 -4 -115 -6 -118 -3
-2 -44 50 -92 116 -70 98 -91 121 -111 121 l-24 0 0 -175z"/>
<path d="M4330 4699 c-53 -16 -86 -44 -110 -96 -35 -75 -14 -156 57 -210 32
-25 45 -28 107 -28 59 0 77 4 104 24 31 22 32 24 16 42 -14 16 -19 16 -38 4
-12 -8 -42 -18 -67 -21 -58 -8 -108 24 -128 82 -17 50 -9 88 28 125 40 39 90
47 143 20 42 -21 68 -16 68 14 0 32 -120 62 -180 44z"/>
<path d="M4664 4700 c-69 -16 -134 -95 -134 -163 0 -36 25 -96 53 -125 84 -90
239 -66 296 46 17 33 16 114 -3 149 -21 41 -69 80 -114 93 -41 11 -53 11 -98
0z m100 -55 c124 -52 85 -235 -51 -235 -135 0 -173 182 -49 236 40 17 56 17
100 -1z"/>
<path d="M5035 4695 c-50 -18 -101 -72 -114 -122 -26 -97 45 -200 150 -218 22
-4 43 -13 46 -21 8 -20 56 -44 90 -44 15 0 43 9 61 20 30 18 32 23 21 38 -7 9
-14 19 -16 21 -1 1 -12 -4 -25 -13 -26 -19 -59 -21 -75 -5 -9 9 -4 17 19 33
110 75 110 216 0 295 -38 27 -108 34 -157 16z m110 -49 c19 -8 44 -30 55 -48
52 -86 -9 -189 -112 -188 -94 1 -149 105 -98 188 20 32 67 61 103 62 10 0 33
-6 52 -14z"/>
<path d="M5330 4583 c0 -143 12 -178 69 -208 43 -22 129 -19 169 5 50 31 62
71 62 210 l0 121 -27 -3 -28 -3 -5 -128 c-5 -120 -7 -130 -29 -148 -34 -28
-96 -25 -126 6 -24 23 -25 30 -25 150 l0 125 -30 0 -30 0 0 -127z"/>
<path d="M5710 4535 l0 -175 25 0 25 0 0 175 0 175 -25 0 -25 0 0 -175z"/>
<path d="M5848 4700 c-1 -5 -2 -84 0 -175 l3 -165 24 0 c24 0 24 1 27 117 l3
118 49 -103 c36 -74 55 -102 68 -102 13 0 32 27 65 94 26 52 51 93 55 90 4 -3
8 -52 8 -110 l0 -104 25 0 25 0 0 175 0 175 -30 0 c-28 0 -33 -7 -89 -117
l-59 -118 -58 118 c-53 106 -61 117 -85 117 -15 0 -29 -4 -31 -10z"/>
<path d="M6290 4535 l0 -175 105 0 c100 0 106 1 134 28 41 37 46 97 11 132
-19 19 -19 22 -5 43 19 28 19 76 0 104 -21 29 -73 43 -167 43 l-78 0 0 -175z
m181 115 c22 -12 26 -59 7 -78 -7 -7 -39 -12 -75 -12 l-63 0 0 43 c0 24 3 47
7 50 10 11 102 8 124 -3z m21 -157 c22 -20 23 -41 1 -65 -12 -14 -31 -18 -78
-18 -34 0 -64 2 -66 4 -2 3 -3 25 -1 50 l4 46 61 0 c42 0 66 -5 79 -17z"/>
<path d="M6741 4703 c-43 -8 -100 -52 -121 -93 -72 -140 60 -290 216 -245 60
17 107 64 125 124 25 84 -36 185 -128 210 -39 11 -50 12 -92 4z m100 -64 c75
-38 90 -133 29 -194 -27 -27 -37 -30 -91 -30 -56 0 -63 3 -90 33 -56 62 -33
164 45 198 43 18 60 17 107 -7z"/>
</g>
</svg>
